<svg width="185" height="37" viewBox="0 0 185 37" fill="none" xmlns="http://www.w3.org/2000/svg">
<g clip-path="url(#clip0_73_29)">
<path fill-rule="evenodd" clip-rule="evenodd" d="M82.0941 19.8519C82.9245 19.1214 84.1895 19.2022 84.9198 20.0322L94.7801 31.2371C94.7912 31.2495 94.7986 31.2537 94.8045 31.2561C94.8119 31.2594 94.8223 31.2622 94.8357 31.2622C94.849 31.2622 94.8601 31.2594 94.8676 31.2561C94.8728 31.2537 94.8802 31.2495 94.8913 31.2371L104.752 20.0322C105.482 19.2022 106.747 19.1214 107.577 19.8519C108.407 20.5823 108.488 21.8473 107.757 22.6774L97.8973 33.8822C96.2734 35.7276 93.3979 35.7276 91.7741 33.8822L81.9139 22.6774C81.1835 21.8473 81.2643 20.5823 82.0941 19.8519Z" fill="#F71E6C"/>
<path fill-rule="evenodd" clip-rule="evenodd" d="M90.5536 9.73752C88.9445 7.43974 85.7777 6.88127 83.4798 8.4902C81.182 10.0992 80.6237 13.2663 82.2327 15.5641C82.8666 16.4698 82.6464 17.7182 81.7411 18.3524C80.835 18.9866 79.5871 18.7664 78.9524 17.8607C76.0754 13.7515 77.0742 8.08765 81.1835 5.21034C85.2928 2.33301 90.9562 3.33168 93.8331 7.44093C94.4678 8.34665 94.2476 9.59501 93.3415 10.2292C92.4362 10.8634 91.1875 10.6432 90.5536 9.73752Z" fill="#F2D060"/>
<path fill-rule="evenodd" clip-rule="evenodd" d="M107.605 15.5641C109.214 13.2663 108.656 10.0992 106.358 8.49027C104.06 6.88128 100.894 7.43974 99.2846 9.7376C98.6506 10.6432 97.402 10.8634 96.4966 10.2292C95.5905 9.59501 95.3703 8.34665 96.005 7.44093C98.882 3.33168 104.545 2.333 108.655 5.21035C112.764 8.08772 113.763 13.7515 110.886 17.8608C110.251 18.7665 109.003 18.9866 108.097 18.3524C107.192 17.7182 106.972 16.4698 107.605 15.5641Z" fill="#1257FA"/>
<path d="M129.938 30.3414C134.861 30.3414 137.679 27.1679 137.679 22.4817V9.19434H135.306V22.452C135.306 25.9222 133.437 28.117 129.938 28.117C126.438 28.117 124.599 25.9222 124.599 22.4817V9.19434H122.196V22.5114C122.196 27.2272 124.955 30.3414 129.938 30.3414Z" fill="#181D29"/>
<path d="M151.356 30.3415C156.962 30.3415 161.826 26.5451 161.796 19.0413H150.674V21.1471H159.097C158.949 25.2994 155.627 28.0874 151.386 28.0874C146.492 28.0874 143.14 24.4986 143.14 19.5752C143.14 14.711 146.432 11.0629 151.326 11.0629C154.826 11.0629 157.317 12.8425 158.415 15.5415H161.084C159.72 11.6265 156.101 8.80884 151.326 8.80884C145.157 8.80884 140.649 13.4654 140.649 19.5752C140.649 25.7443 145.187 30.3415 151.356 30.3415Z" fill="#181D29"/>
<path d="M174.237 30.3415C179.013 30.3415 182.72 27.6129 184.025 23.3123H181.356C180.318 26.4858 177.47 28.0874 174.267 28.0874C169.67 28.0874 166.081 24.4986 166.081 19.5752C166.081 14.711 169.67 11.0629 174.267 11.0629C177.47 11.0629 180.347 12.6942 181.445 15.8381H184.025C182.661 11.6265 179.042 8.80884 174.267 8.80884C168.128 8.80884 163.59 13.4654 163.59 19.5752C163.59 25.7443 168.098 30.3415 174.237 30.3415Z" fill="#181D29"/>
<path d="M0.0266724 29.9559H11.3862V27.7907H2.42908V9.19434H0.0266724V29.9559Z" fill="#181D29"/>
<path d="M22.1119 30.3415C28.3107 30.3415 32.8783 25.685 32.8783 19.5752C32.8783 13.5247 28.3404 8.80884 22.1416 8.80884C15.9725 8.80884 11.4049 13.4654 11.4049 19.5752C11.4049 25.7443 15.9428 30.3415 22.1119 30.3415ZM22.1416 28.0874C17.3962 28.0874 13.8964 24.4986 13.8964 19.5752C13.8964 14.711 17.3962 11.0629 22.1416 11.0629C26.8871 11.0629 30.3869 14.711 30.3869 19.5752C30.3869 24.4986 26.8871 28.0874 22.1416 28.0874Z" fill="#181D29"/>
<path d="M41.4563 29.9559H44.2739L52.1337 9.19434H49.4347L42.9096 27.3162H42.7317L36.3549 9.19434H33.7745L41.4563 29.9559Z" fill="#181D29"/>
<path d="M54.5118 29.9559H66.6722V27.7907H56.9142V20.4649H65.0409V18.2997H56.9142V11.3891H66.3459V9.19434H54.5118V29.9559Z" fill="#181D29"/>
</g>
<defs>
<clipPath id="clip0_73_29">
<rect width="184.036" height="37" fill="white"/>
</clipPath>
</defs>
</svg>
